<svg width="16" height="16" viewBox="0 0 16 16" fill="none" xmlns="http://www.w3.org/2000/svg">
<g clip-path="url(#clip0_2950_27453)">
<path d="M3.33052 8.72096C2.85219 8.44788 2.83644 7.76389 3.30169 7.46908L5.49853 6.07703C5.86596 5.84421 6.13863 5.48833 6.26784 5.07298L7.20742 2.05252C7.38991 1.46587 8.21412 1.44911 8.4203 2.02786L9.53296 5.15104C9.66381 5.51834 9.90836 5.83436 10.2311 6.05318L12.3385 7.48212C12.7784 7.78038 12.7629 8.4335 12.3093 8.71056L10.2879 9.94545C9.92976 10.1643 9.65752 10.4993 9.51667 10.8947L8.4203 13.9721C8.21412 14.5509 7.38991 14.5341 7.20742 13.9475L6.28219 10.9732C6.14435 10.53 5.84358 10.1557 5.44056 9.92559L3.33052 8.72096Z" fill="#7E8390"/>
</g>
<defs>
<clipPath id="clip0_2950_27453">
<rect width="16" height="16" fill="white"/>
</clipPath>
</defs>
</svg>
