<svg width="24" height="24" viewBox="0 0 24 24" fill="none" xmlns="http://www.w3.org/2000/svg">
<g clip-path="url(#clip0_2950_27752)">
<path d="M16 15.4805L12 11.4805L8 15.4805" stroke="#3182F7" stroke-width="2" stroke-linecap="round" stroke-linejoin="round"/>
<path d="M12 11.4805V20.4805" stroke="#3182F7" stroke-width="2" stroke-linecap="round" stroke-linejoin="round"/>
<path d="M20.3895 17.8719C21.3648 17.3402 22.1353 16.4988 22.5793 15.4805C23.0234 14.4623 23.1157 13.3251 22.8417 12.2486C22.5677 11.1721 21.943 10.2174 21.0661 9.53536C20.1893 8.8533 19.1103 8.48265 17.9995 8.48192H16.7395C16.4368 7.31116 15.8726 6.22425 15.0894 5.30291C14.3062 4.38157 13.3243 3.64977 12.2176 3.16252C11.1108 2.67528 9.90802 2.44528 8.69959 2.4898C7.49116 2.53432 6.30854 2.85222 5.24065 3.41958C4.17276 3.98695 3.24738 4.78902 2.53409 5.7655C1.8208 6.74198 1.33816 7.86745 1.12245 9.05731C0.906742 10.2472 0.963577 11.4704 1.28869 12.6352C1.61379 13.7999 2.19871 14.8758 2.99947 15.7819" stroke="#3182F7" stroke-width="2" stroke-linecap="round" stroke-linejoin="round"/>
<path d="M16 15.4805L12 11.4805L8 15.4805" stroke="#3182F7" stroke-width="2" stroke-linecap="round" stroke-linejoin="round"/>
</g>
<defs>
<clipPath id="clip0_2950_27752">
<rect width="24" height="24" fill="white"/>
</clipPath>
</defs>
</svg>
