<svg width="64" height="64" viewBox="0 0 64 64" fill="none" xmlns="http://www.w3.org/2000/svg">
<g clip-path="url(#clip0_2139_6452)">
<path d="M57.9453 37.1982C57.9453 37.1988 57.9458 37.1992 57.9463 37.1992C57.9468 37.1992 57.9473 37.1997 57.9473 37.2002V47.6797L57.9465 56.4126C57.9464 57.3772 57.1643 58.1592 56.1997 58.1592H7.74673C6.78204 58.1592 6 57.3771 6 56.4124V49.4254C6 48.4608 6.78204 47.6787 7.74673 47.6787H14.1761C15.1408 47.6787 15.9229 46.8967 15.9229 45.932V38.946C15.9229 37.9813 16.7049 37.1992 17.6696 37.1992H25.848C26.8127 37.1992 27.5947 36.4172 27.5947 35.4525V29.3385C27.5947 28.3738 28.3768 27.5918 29.3415 27.5918H38.1048C39.0695 27.5918 39.8516 26.8098 39.8516 25.8451V18.8581C39.8516 17.8934 40.6336 17.1113 41.5983 17.1113H49.7796C50.7443 17.1113 51.5264 16.3293 51.5264 15.3646V10.1247C51.5264 9.15997 52.3084 8.37793 53.2731 8.37793H56.2005C57.1652 8.37793 57.9473 9.15997 57.9473 10.1247V17.1104C57.9473 17.1109 57.9468 17.1113 57.9463 17.1113C57.9458 17.1113 57.9453 17.1118 57.9453 17.1123V37.1982Z" fill="#D2E4FF"/>
<rect x="23.4463" y="22.4373" width="6.57079" height="18.6619" transform="rotate(-33.0936 23.4463 22.4373)" fill="#D2D2D2"/>
<path d="M28.0218 32.3813C27.9587 32.2782 27.931 32.1583 27.9821 32.0488C28.1558 31.6767 28.8587 30.6843 31.7015 28.8316C34.5443 26.9788 35.736 26.7364 36.1465 26.7278C36.2673 26.7252 36.3658 26.799 36.4347 26.8983L50.1003 46.6232C50.3011 46.9131 50.2229 47.3115 49.9275 47.504L41.4256 53.045C41.1302 53.2375 40.7342 53.1481 40.5501 52.8474L28.0218 32.3813Z" fill="#FF7F1C"/>
<path d="M28.1923 10.3948C31.3004 8.20135 35.6672 7.07599 40.688 8.64989C41.513 8.90851 41.4254 10.0343 40.6027 10.3002C35.5052 11.9476 31.6438 14.7545 33.8832 19.1269C33.8856 19.1305 33.8846 19.1353 33.881 19.1377L22.3496 26.653C21.9346 26.9235 21.3789 26.8063 21.1084 26.3913C20.8379 25.9763 20.2822 25.8591 19.8672 26.1296L18.3373 27.1267C17.9313 27.3913 17.8167 27.9349 18.0812 28.3409C18.3458 28.7469 18.2312 29.2905 17.8252 29.5551L13.3021 32.503C12.8783 32.7792 12.3108 32.6595 12.0346 32.2357L7.37799 25.0908C7.10178 24.667 7.22143 24.0995 7.64525 23.8233L12.1361 20.8964C12.5599 20.6202 13.1274 20.7399 13.4036 21.1637L13.5423 21.3765C13.8185 21.8003 14.386 21.92 14.8098 21.6437L16.2915 20.6781C16.7154 20.4018 16.835 19.8344 16.5588 19.4105L16.4031 19.1716C16.1268 18.7478 16.2465 18.1803 16.6703 17.9041L28.1923 10.3948Z" fill="#4F4F4F"/>
</g>
<defs>
<clipPath id="clip0_2139_6452">
<rect width="64" height="64" fill="white"/>
</clipPath>
</defs>
</svg>
