<svg width="14" height="14" viewBox="0 0 14 14" fill="none" xmlns="http://www.w3.org/2000/svg">
<g clip-path="url(#clip0_3019_27675)">
<path d="M2.91325 7.63084C2.49471 7.3919 2.48093 6.7934 2.88803 6.53544L4.81026 5.3174C5.13176 5.11368 5.37035 4.80229 5.4834 4.43886L6.30554 1.79595C6.46521 1.28263 7.1864 1.26797 7.36681 1.77438L8.34038 4.50716C8.45488 4.82855 8.66886 5.10506 8.95125 5.29654L10.7952 6.54686C11.1801 6.80783 11.1666 7.37931 10.7697 7.62174L9.00098 8.70227C8.68759 8.89372 8.44937 9.18691 8.32613 9.53285L7.36681 12.2256C7.1864 12.732 6.46522 12.7174 6.30554 12.204L5.49597 9.60153C5.37535 9.21379 5.11218 8.88622 4.75954 8.68489L2.91325 7.63084Z" fill="url(#paint0_linear_3019_27675)"/>
</g>
<defs>
<linearGradient id="paint0_linear_3019_27675" x1="3.40088" y1="3.59705" x2="10.2068" y2="10.403" gradientUnits="userSpaceOnUse">
<stop stop-color="#74DCFF"/>
<stop offset="1" stop-color="#B2B3FF"/>
</linearGradient>
<clipPath id="clip0_3019_27675">
<rect width="14" height="14" fill="white"/>
</clipPath>
</defs>
</svg>
